<svg width="18" height="18" viewBox="0 0 18 18" fill="none" xmlns="http://www.w3.org/2000/svg">
<path d="M8 0.9C8 0.661305 8.09482 0.432387 8.2636 0.263604C8.43239 0.0948211 8.6613 0 8.9 0C9.13869 0 9.36761 0.0948211 9.5364 0.263604C9.70518 0.432387 9.8 0.661305 9.8 0.9V7.4752C10.2136 7.6048 10.616 7.7808 11 8.0024V2.1C11 1.86131 11.0948 1.63239 11.2636 1.4636C11.4324 1.29482 11.6613 1.2 11.9 1.2C12.1387 1.2 12.3676 1.29482 12.5364 1.4636C12.7052 1.63239 12.8 1.86131 12.8 2.1V10.8496C12.2491 10.9428 11.7275 11.1629 11.2763 11.4924C10.825 11.8218 10.4566 12.2517 10.2 12.748C11.1944 12.2543 12.2898 11.9982 13.4 12C13.5591 12 13.7117 11.9368 13.8243 11.8243C13.9368 11.7117 14 11.5591 14 11.4V9.5872C14.0028 8.87562 14.2869 8.19403 14.7904 7.6912C14.9605 7.52927 15.1871 7.44023 15.4219 7.44307C15.6567 7.44591 15.8811 7.54041 16.0472 7.70641C16.2133 7.8724 16.3079 8.09674 16.3109 8.33155C16.3139 8.56635 16.225 8.79303 16.0632 8.9632C15.98 9.0461 15.9139 9.14458 15.8687 9.25302C15.8236 9.36146 15.8002 9.47773 15.8 9.5952V12H15.796C15.7487 13.2068 15.2482 14.3514 14.3944 15.2056L13.0056 16.5944C12.1055 17.4943 10.8848 17.9999 9.612 18H8C6.4087 18 4.88258 17.3679 3.75736 16.2426C2.63214 15.1174 2 13.5913 2 12V4.5C2 4.26131 2.09482 4.03239 2.2636 3.8636C2.43239 3.69482 2.66131 3.6 2.9 3.6C3.13869 3.6 3.36761 3.69482 3.5364 3.8636C3.70518 4.03239 3.8 4.26131 3.8 4.5V8.9152C4.168 8.5536 4.572 8.2496 5 8.0024V2.1C5 1.86131 5.09482 1.63239 5.2636 1.4636C5.43239 1.29482 5.6613 1.2 5.9 1.2C6.13869 1.2 6.36761 1.29482 6.5364 1.4636C6.70518 1.63239 6.8 1.86131 6.8 2.1V7.3208C7.196 7.2408 7.5976 7.2 8 7.2V0.9Z" fill="white"/>
</svg>
