<svg width="60" height="60" viewBox="0 0 60 60" fill="none" xmlns="http://www.w3.org/2000/svg">
<g clip-path="url(#clip0_272_200)">
<mask id="mask0_272_200" style="mask-type:luminance" maskUnits="userSpaceOnUse" x="0" y="0" width="60" height="60">
<path d="M0 -3.8147e-06H60V60H0V-3.8147e-06Z" fill="white"/>
</mask>
<g mask="url(#mask0_272_200)">
<path d="M34.7368 30C34.7368 26.8406 39.8621 24.6806 42.6316 20.5263C45.7895 15.7895 45.7895 4.73687 45.7895 4.73687H14.2105C14.2105 4.73687 14.2105 15.7895 17.3684 20.5263C20.1363 24.6806 25.2631 26.8406 25.2631 30C25.2631 33.1595 20.1363 35.3195 17.3684 39.4737C14.2105 44.2106 14.2105 55.2632 14.2105 55.2632H45.7895C45.7895 55.2632 45.7895 44.2106 42.6316 39.4737C39.8621 35.3195 34.7368 33.1595 34.7368 30Z" fill="#FFE8B6"/>
<path d="M34.7353 39.4737C33.1579 39.4737 31.4874 37.8948 31.4874 36.3158C31.5774 33.6111 31.5789 31.8221 31.5789 30C31.5789 24.9158 36.3695 22.7969 39.3158 18.9474H20.6842C23.6289 22.7969 28.421 24.9158 28.421 30C28.421 31.8221 28.421 33.6127 28.5126 36.3158C28.5126 37.8948 26.8405 39.4737 25.2616 39.4737C22.1037 39.4737 19.5868 42.2906 18.9458 44.2106C17.3668 48.9474 17.3684 55.2632 17.3684 55.2632H42.6316C42.6316 55.2632 42.6316 48.9474 41.0526 44.2106C40.4131 42.2906 37.8931 39.4737 34.7353 39.4737Z" fill="#FFAC33"/>
<path d="M48.9473 55.2631C48.9473 56.1007 48.6146 56.9039 48.0224 57.4961C47.4302 58.0883 46.627 58.421 45.7895 58.421H14.2105C13.373 58.421 12.5698 58.0883 11.9775 57.4961C11.3853 56.9039 11.0526 56.1007 11.0526 55.2631C11.0526 54.4256 11.3853 53.6224 11.9775 53.0302C12.5698 52.4379 13.373 52.1052 14.2105 52.1052H45.7895C46.627 52.1052 47.4302 52.4379 48.0224 53.0302C48.6146 53.6224 48.9473 54.4256 48.9473 55.2631ZM48.9473 4.73681C48.9473 5.57433 48.6146 6.37756 48.0224 6.96978C47.4302 7.562 46.627 7.8947 45.7895 7.8947H14.2105C13.373 7.8947 12.5698 7.562 11.9775 6.96978C11.3853 6.37756 11.0526 5.57433 11.0526 4.73681C11.0526 3.89928 11.3853 3.09606 11.9775 2.50384C12.5698 1.91162 13.373 1.57891 14.2105 1.57891H45.7895C46.627 1.57891 47.4302 1.91162 48.0224 2.50384C48.6146 3.09606 48.9473 3.89928 48.9473 4.73681Z" fill="#5568FE"/>
</g>
</g>
<defs>
<clipPath id="clip0_272_200">
<rect width="60" height="60" fill="white"/>
</clipPath>
</defs>
</svg>
