<svg width="60" height="60" viewBox="0 0 60 60" fill="none" xmlns="http://www.w3.org/2000/svg">
<g clip-path="url(#clip0_276_225)">
<rect x="13.125" y="13.75" width="32.5" height="31.875" fill="white"/>
<path d="M30 0C13.4325 0 0 13.4325 0 30C0 46.5675 13.4325 60 30 60C46.5675 60 60 46.5675 60 30C60 13.4325 46.5675 0 30 0ZM41.25 37.5C41.25 38.4946 40.8549 39.4484 40.1516 40.1516C39.4484 40.8549 38.4946 41.25 37.5 41.25H22.5C21.5054 41.25 20.5516 40.8549 19.8484 40.1516C19.1451 39.4484 18.75 38.4946 18.75 37.5V22.5C18.75 21.5054 19.1451 20.5516 19.8484 19.8484C20.5516 19.1451 21.5054 18.75 22.5 18.75H37.5C38.4946 18.75 39.4484 19.1451 40.1516 19.8484C40.8549 20.5516 41.25 21.5054 41.25 22.5V37.5Z" fill="#FF5D5D"/>
</g>
<defs>
<clipPath id="clip0_276_225">
<rect width="60" height="60" fill="white"/>
</clipPath>
</defs>
</svg>
